<svg aria-hidden="true" style="width:0;height:0;position:absolute;overflow:hidden" xmlns="http://www.w3.org/2000/svg"><defs><symbol id="icon-instagram" viewBox="0 0 28 28"><g opacity=".8"><path d="M25.129 9.412a8.093 8.093 0 0 0-.522-2.752 5.73 5.73 0 0 0-3.275-3.27 8.23 8.23 0 0 0-2.719-.522C17.416 2.815 17.037 2.8 14 2.8c-3.037 0-3.426 0-4.614.068-.93.02-1.849.195-2.718.522a5.726 5.726 0 0 0-3.275 3.27 8.127 8.127 0 0 0-.522 2.713c-.053 1.196-.07 1.575-.07 4.607 0 3.033 0 3.42.07 4.607.02.93.194 1.846.522 2.716a5.73 5.73 0 0 0 3.276 3.269 8.2 8.2 0 0 0 2.718.559c1.198.053 1.577.07 4.615.07 3.037 0 3.427 0 4.615-.07a8.209 8.209 0 0 0 2.719-.52 5.736 5.736 0 0 0 3.275-3.27c.327-.87.503-1.786.521-2.716.054-1.195.07-1.574.07-4.608-.003-3.032-.003-3.417-.072-4.605ZM13.992 19.715a5.744 5.744 0 0 1-5.75-5.741 5.745 5.745 0 0 1 5.75-5.741c3.174 0 5.75 2.57 5.75 5.741a5.746 5.746 0 0 1-5.75 5.74Zm5.98-10.356a1.338 1.338 0 1 1 0-2.677 1.338 1.338 0 1 1 0 2.677Z"/><path d="M13.994 17.479a3.503 3.503 0 1 0 0-7.007 3.503 3.503 0 0 0 0 7.007Z"/></g></symbol><symbol id="icon-viber" viewBox="0 0 32 32"><path d="M15.197.003C12.63.038 7.108.459 4.018 3.29 1.725 5.57.923 8.931.83 13.094.75 17.241.657 25.027 8.163 27.149v3.227s-.051 1.293.803 1.56c1.053.333 1.653-.665 2.653-1.732l1.867-2.107c5.133.427 9.067-.559 9.52-.705 1.04-.333 6.908-1.081 7.868-8.869.987-8.041-.48-13.108-3.12-15.401l-.013-.003c-.8-.733-4-3.067-11.16-3.093 0 0-.528-.033-1.384-.021zm.09 2.262c.727-.004 1.173.027 1.173.027 6.053.013 8.948 1.84 9.628 2.453 2.227 1.905 3.371 6.475 2.533 13.189-.8 6.507-5.56 6.92-6.44 7.2-.373.12-3.84.973-8.203.693 0 0-3.252 3.921-4.265 4.935-.16.173-.347.227-.467.2-.173-.04-.227-.253-.213-.547l.027-5.359c-6.361-1.76-5.988-8.403-5.921-11.869.08-3.467.733-6.309 2.667-8.229 2.609-2.36 7.3-2.68 9.481-2.693zm.48 3.467h-.001a.4.4 0 0 0 .001.799l.143-.001c2.034 0 3.88.809 5.232 2.123l-.002-.002c1.453 1.413 2.161 3.307 2.188 5.787a.4.4 0 0 0 .4.4v-.012a.4.4 0 0 0 .4-.4 8.575 8.575 0 0 0-2.415-6.349l.002.002c-1.587-1.547-3.589-2.347-5.948-2.347zm-5.272.92a1.263 1.263 0 0 0-.826.163l.006-.003h-.016c-.547.32-1.051.72-1.531 1.253-.36.427-.561.852-.615 1.265a1.634 1.634 0 0 0 .07.733l-.003-.012.027.013a18.197 18.197 0 0 0 1.646 3.549l-.046-.082a20.684 20.684 0 0 0 3.101 4.237l-.008-.009.04.053.053.04.08.08a20.864 20.864 0 0 0 4.136 3.053l.104.054c1.76.96 2.829 1.413 3.469 1.6v.013c.187.053.357.08.531.08a2.447 2.447 0 0 0 1.471-.631l-.002.002a6.03 6.03 0 0 0 1.24-1.531v-.013c.307-.573.2-1.121-.24-1.495a18.139 18.139 0 0 0-2.781-2.007l-.085-.046c-.68-.373-1.373-.147-1.653.227l-.6.759c-.307.373-.867.32-.867.32l-.016.013c-4.16-1.067-5.267-5.279-5.267-5.279s-.053-.573.333-.867l.747-.6c.36-.293.613-.987.227-1.667a18.073 18.073 0 0 0-2.071-2.887l.017.02a1.127 1.127 0 0 0-.665-.399l-.007-.001zm5.964 1.187a.401.401 0 0 0 .001.8h.001a5.027 5.027 0 0 1 3.532 1.532l.001.001a4.646 4.646 0 0 1 1.199 3.44l.001-.014c.001.22.18.399.4.399l.013.016a.4.4 0 0 0 .4-.4v-.001c.04-1.587-.453-2.92-1.427-3.987s-2.333-1.667-4.067-1.787l-.028-.001-.029.001h.001zm.653 2.158H17.1a.407.407 0 0 0-.012.815h.001c1.32.067 1.96.733 2.04 2.107a.4.4 0 0 0 .4.387h.013a.4.4 0 0 0 .388-.4l-.001-.028v.001c-.093-1.787-1.067-2.788-2.8-2.881h-.016z" opacity=".8"/></symbol><symbol id="icon-telegram" viewBox="0 0 32 32"><g opacity=".8"><path opacity=".7" d="M26.07 3.996a2.974 2.974 0 0 0-.933.223h-.004c-.285.113-1.64.683-3.7 1.547l-7.382 3.109c-5.297 2.23-10.504 4.426-10.504 4.426l.062-.024s-.359.118-.734.375c-.232.147-.431.34-.586.567-.184.27-.332.683-.277 1.11.09.722.558 1.155.894 1.394.34.242.664.355.664.355h.008l4.883 1.645c.219.703 1.488 4.875 1.793 5.836.18.574.355.933.574 1.207.106.14.23.257.379.351.077.045.16.081.246.106l-.05-.012c.015.004.027.016.038.02.04.011.067.015.118.023.773.234 1.394-.246 1.394-.246l.035-.028 2.883-2.625 4.832 3.707.11.047c1.007.442 2.027.196 2.566-.238.543-.437.754-.996.754-.996l.035-.09 3.734-19.129c.106-.472.133-.914.016-1.343a1.807 1.807 0 0 0-.781-1.047 1.87 1.87 0 0 0-1.067-.27zm-.101 2.05c-.004.063.008.056-.02.177v.011l-3.699 18.93c-.016.027-.043.086-.117.145-.078.062-.14.101-.465-.028l-5.91-4.531-3.57 3.254.75-4.79 9.656-9c.398-.37.265-.448.265-.448.028-.454-.601-.133-.601-.133l-12.176 7.543-.004-.02-5.851-1.972a.188.188 0 0 0 .03-.012l.032-.016.031-.011s5.211-2.196 10.508-4.426c2.652-1.117 5.324-2.242 7.379-3.11a831.676 831.676 0 0 1 3.66-1.53c.082-.032.043-.032.102-.032v-.001z"/></g></symbol><symbol id="icon-Vector" viewBox="0 0 55 32"><path d="M1.091 25.309 25.527.8c.291-.291.605-.495.945-.617S27.176 0 27.563 0s.751.061 1.091.183c.371.139.687.349.945.616L29.6.8l24.509 24.509c.678.678 1.018 1.527 1.018 2.545s-.364 1.891-1.091 2.618a3.486 3.486 0 0 1-2.535 1.091h-.011.001-.01a3.482 3.482 0 0 1-2.534-1.089l-.001-.002L27.564 9.09 6.182 30.472c-.678.678-1.513 1.018-2.508 1.018s-1.856-.364-2.583-1.091A3.486 3.486 0 0 1 0 27.864v-.011.001-.01c0-.998.418-1.897 1.089-2.534l.002-.001z"/></symbol></defs></svg>