<svg aria-hidden="true" style="position: absolute; width: 0; height: 0; overflow: hidden;" version="1.1" xmlns="http://www.w3.org/2000/svg" xmlns:xlink="http://www.w3.org/1999/xlink">
    <defs>

        <!--icon-instagram-->
        <symbol id="icon-instagram"  viewBox="0 0 28 28">
            <g opacity="0.8">
                <path d="M25.1286 9.41152C25.115 8.47146 24.9408 7.53885 24.6074 6.65964C24.0241 5.15827 22.8361 3.97109 21.3323 3.38991C20.4628 3.06332 19.5436 2.88822 18.6131 2.86835C17.4165 2.81495 17.0371 2.80005 13.9995 2.80005C10.962 2.80005 10.5726 2.80005 9.3847 2.86835C8.45551 2.88822 7.53628 3.06332 6.6668 3.38991C5.16293 3.97109 3.97377 5.15827 3.39163 6.65964C3.06449 7.52767 2.88785 8.44538 2.87044 9.37302C2.81695 10.5689 2.80078 10.9477 2.80078 13.9802C2.80078 17.0127 2.80078 17.4002 2.87044 18.5873C2.8891 19.5162 3.06449 20.4327 3.39163 21.3032C3.97501 22.8033 5.16293 23.9905 6.66804 24.5717C7.53379 24.9095 8.45303 25.1007 9.38594 25.1305C10.5838 25.1839 10.9632 25.2001 14.0008 25.2001C17.0384 25.2001 17.4277 25.2001 18.6156 25.1305C19.5448 25.1119 20.464 24.9368 21.3348 24.6102C22.8386 24.0278 24.0266 22.8406 24.6099 21.3405C24.9371 20.4712 25.1125 19.5547 25.1311 18.6246C25.1846 17.43 25.2008 17.0512 25.2008 14.0174C25.1983 10.9849 25.1983 10.5999 25.1286 9.41152ZM13.9921 19.7149C10.8152 19.7149 8.24156 17.1456 8.24156 13.974C8.24156 10.8024 10.8152 8.23302 13.9921 8.23302C17.1665 8.23302 19.7426 10.8024 19.7426 13.974C19.7426 17.1456 17.1665 19.7149 13.9921 19.7149ZM19.9715 9.35936C19.2289 9.35936 18.6305 8.7608 18.6305 8.02067C18.6305 7.28055 19.2289 6.68199 19.9715 6.68199C20.7116 6.68199 21.3111 7.28055 21.3111 8.02067C21.3111 8.7608 20.7116 9.35936 19.9715 9.35936Z"/>
                <path d="M13.9937 17.4789C15.9287 17.4789 17.4972 15.9104 17.4972 13.9754C17.4972 12.0405 15.9287 10.4719 13.9937 10.4719C12.0588 10.4719 10.4902 12.0405 10.4902 13.9754C10.4902 15.9104 12.0588 17.4789 13.9937 17.4789Z"/>
            </g>
        </symbol>

        <!--icon-viber-->
        <symbol id="icon-viber" viewBox="0 0 32 32">
                    <g opacity="0.8">
            <path d="M15.197 0.003c-2.567 0.035-8.089 0.456-11.179 3.287-2.293 2.28-3.095 5.641-3.188 9.804-0.080 4.147-0.173 11.933 7.333 14.055v3.227c0 0-0.051 1.293 0.803 1.56 1.053 0.333 1.653-0.665 2.653-1.732l1.867-2.107c5.133 0.427 9.067-0.559 9.52-0.705 1.040-0.333 6.908-1.081 7.868-8.869 0.987-8.041-0.48-13.108-3.12-15.401l-0.013-0.003c-0.8-0.733-4-3.067-11.16-3.093 0 0-0.528-0.033-1.384-0.021zM15.287 2.265c0.727-0.004 1.173 0.027 1.173 0.027 6.053 0.013 8.948 1.84 9.628 2.453 2.227 1.905 3.371 6.475 2.533 13.189-0.8 6.507-5.56 6.92-6.44 7.2-0.373 0.12-3.84 0.973-8.203 0.693 0 0-3.252 3.921-4.265 4.935-0.16 0.173-0.347 0.227-0.467 0.2-0.173-0.040-0.227-0.253-0.213-0.547l0.027-5.359c-6.361-1.76-5.988-8.403-5.921-11.869 0.080-3.467 0.733-6.309 2.667-8.229 2.609-2.36 7.3-2.68 9.481-2.693zM15.767 5.732c-0 0-0.001 0-0.001 0-0.22 0-0.399 0.178-0.399 0.399 0 0 0 0 0 0v0c0 0.221 0.179 0.4 0.4 0.4v0c0.043-0.001 0.093-0.001 0.143-0.001 2.034 0 3.88 0.809 5.232 2.123l-0.002-0.002c1.453 1.413 2.161 3.307 2.188 5.787 0 0.221 0.179 0.4 0.4 0.4v0-0.012c0.221 0 0.4-0.179 0.4-0.4v0c0.005-0.109 0.008-0.236 0.008-0.364 0-2.326-0.923-4.436-2.423-5.985l0.002 0.002c-1.587-1.547-3.589-2.347-5.948-2.347zM10.495 6.652c-0.054-0.008-0.116-0.013-0.18-0.013-0.236 0-0.457 0.064-0.646 0.176l0.006-0.003h-0.016c-0.547 0.32-1.051 0.72-1.531 1.253-0.36 0.427-0.561 0.852-0.615 1.265-0.009 0.064-0.014 0.137-0.014 0.212 0 0.182 0.029 0.357 0.084 0.521l-0.003-0.012 0.027 0.013c0.458 1.331 0.998 2.476 1.646 3.549l-0.046-0.082c0.895 1.608 1.922 2.996 3.101 4.237l-0.008-0.009 0.040 0.053 0.053 0.040 0.080 0.080c1.236 1.174 2.628 2.205 4.136 3.053l0.104 0.054c1.76 0.96 2.829 1.413 3.469 1.6v0.013c0.187 0.053 0.357 0.080 0.531 0.080 0.57-0.043 1.079-0.274 1.471-0.631l-0.002 0.002c0.52-0.467 0.933-0.984 1.24-1.531v-0.013c0.307-0.573 0.2-1.121-0.24-1.495-0.845-0.742-1.782-1.421-2.781-2.007l-0.085-0.046c-0.68-0.373-1.373-0.147-1.653 0.227l-0.6 0.759c-0.307 0.373-0.867 0.32-0.867 0.32l-0.016 0.013c-4.16-1.067-5.267-5.279-5.267-5.279s-0.053-0.573 0.333-0.867l0.747-0.6c0.36-0.293 0.613-0.987 0.227-1.667-0.631-1.084-1.31-2.022-2.071-2.887l0.017 0.020c-0.166-0.204-0.399-0.349-0.665-0.399l-0.007-0.001zM16.459 7.839c-0.22 0.001-0.399 0.18-0.399 0.4s0.179 0.4 0.4 0.4c0 0 0.001 0 0.001 0h-0c1.388 0.025 2.636 0.607 3.532 1.532l0.001 0.001c0.75 0.825 1.209 1.926 1.209 3.134 0 0.103-0.003 0.205-0.010 0.306l0.001-0.014c0.001 0.22 0.18 0.399 0.4 0.399 0 0 0 0 0 0v0l0.013 0.016c0 0 0 0 0 0 0.221 0 0.4-0.179 0.4-0.4 0-0 0-0.001 0-0.001v0c0.040-1.587-0.453-2.92-1.427-3.987s-2.333-1.667-4.067-1.787c-0.008-0.001-0.018-0.001-0.028-0.001s-0.020 0-0.029 0.001l0.001-0zM17.112 9.997c-0.004-0-0.008-0-0.012-0-0.225 0-0.407 0.182-0.407 0.408 0 0.221 0.176 0.401 0.395 0.407h0.001c1.32 0.067 1.96 0.733 2.040 2.107 0.007 0.215 0.184 0.387 0.4 0.387 0 0 0 0 0 0h0.013c0.215-0.007 0.388-0.183 0.388-0.4 0-0.009-0-0.019-0.001-0.028l0 0.001c-0.093-1.787-1.067-2.788-2.8-2.881-0.002-0-0.005-0-0.008-0s-0.006 0-0.008 0h0z"></path>
                    </g>
        </symbol>

        <!--icon-telegram-->
        <symbol id="icon-telegram" viewBox="0 0 32 32" >
            <g opacity="0.8">
                <path  opacity="0.7" d="M26.070 3.996c-0.321 0.023-0.636 0.099-0.933 0.223h-0.004c-0.285 0.113-1.64 0.683-3.7 1.547l-7.382 3.109c-5.297 2.23-10.504 4.426-10.504 4.426l0.062-0.024c0 0-0.359 0.118-0.734 0.375-0.232 0.147-0.431 0.34-0.586 0.567-0.184 0.27-0.332 0.683-0.277 1.11 0.090 0.722 0.558 1.155 0.894 1.394 0.34 0.242 0.664 0.355 0.664 0.355h0.008l4.883 1.645c0.219 0.703 1.488 4.875 1.793 5.836 0.18 0.574 0.355 0.933 0.574 1.207 0.106 0.14 0.23 0.257 0.379 0.351 0.077 0.045 0.16 0.081 0.246 0.106l-0.050-0.012c0.015 0.004 0.027 0.016 0.038 0.020 0.040 0.011 0.067 0.015 0.118 0.023 0.773 0.234 1.394-0.246 1.394-0.246l0.035-0.028 2.883-2.625 4.832 3.707 0.11 0.047c1.007 0.442 2.027 0.196 2.566-0.238 0.543-0.437 0.754-0.996 0.754-0.996l0.035-0.090 3.734-19.129c0.106-0.472 0.133-0.914 0.016-1.343-0.121-0.434-0.399-0.808-0.781-1.047-0.321-0.195-0.692-0.289-1.067-0.27zM25.969 6.046c-0.004 0.063 0.008 0.056-0.020 0.177v0.011l-3.699 18.93c-0.016 0.027-0.043 0.086-0.117 0.145-0.078 0.062-0.14 0.101-0.465-0.028l-5.91-4.531-3.57 3.254 0.75-4.79 9.656-9c0.398-0.37 0.265-0.448 0.265-0.448 0.028-0.454-0.601-0.133-0.601-0.133l-12.176 7.543-0.004-0.020-5.851-1.972c0.010-0.003 0.020-0.007 0.030-0.012l0.032-0.016 0.031-0.011c0 0 5.211-2.196 10.508-4.426 2.652-1.117 5.324-2.242 7.379-3.11 1.219-0.513 2.439-1.023 3.66-1.53 0.082-0.032 0.043-0.032 0.102-0.032v-0.001z"></path>
            </g>
        </symbol>

        <symbol id="icon-Vector" viewBox="0 0 55 32">
            <path d="M1.091 25.309l24.436-24.509c0.291-0.291 0.605-0.495 0.945-0.617s0.704-0.183 1.091-0.183 0.751 0.061 1.091 0.183c0.371 0.139 0.687 0.349 0.945 0.616l0.001 0.001 24.509 24.509c0.678 0.678 1.018 1.527 1.018 2.545s-0.364 1.891-1.091 2.618c-0.638 0.672-1.538 1.091-2.535 1.091-0.004 0-0.007 0-0.011-0h0.001c-0.003 0-0.007 0-0.010 0-0.998 0-1.897-0.418-2.534-1.089l-0.001-0.002-21.382-21.382-21.382 21.382c-0.678 0.678-1.513 1.018-2.508 1.018s-1.856-0.364-2.583-1.091c-0.672-0.638-1.091-1.538-1.091-2.535 0-0.004 0-0.007 0-0.011v0.001c0-0.003 0-0.007 0-0.010 0-0.998 0.418-1.897 1.089-2.534l0.002-0.001z"></path>
        </symbol>

        <!--Mobile menu open icon-->
        <symbol id="burger-icon" viewBox="0 0 47 32">
            <path stroke-linejoin="round" stroke-linecap="round" stroke-miterlimit="4" stroke-width="4.3636" d="M1.96 29.154h42.965M1.96 15.615h42.965M1.96 2.077h42.965"></path>
        </symbol>

        <!--Close icon-->
        <symbol id="close-icon" viewBox="0 0 32 32">
            <path d="M32 3.223l-3.223-3.223-12.777 12.777-12.777-12.777-3.223 3.223 12.777 12.777-12.777 12.777 3.223 3.223 12.777-12.777 12.777 12.777 3.223-3.223-12.777-12.777 12.777-12.777z"></path>
        </symbol>


        <!--Person icon-->
        <symbol id="person-icon" viewBox="0 0 32 32">
            <path d="M16 16c2.947 0 5.333-2.387 5.333-5.333s-2.387-5.333-5.333-5.333c-2.947 0-5.333 2.387-5.333 5.333s2.387 5.333 5.333 5.333zM16 18.667c-3.56 0-10.667 1.787-10.667 5.333v1.333c0 0.733 0.6 1.333 1.333 1.333h18.667c0.733 0 1.333-0.6 1.333-1.333v-1.333c0-3.547-7.107-5.333-10.667-5.333z"></path>
        </symbol>

        <!--Phone icon-->
        <symbol id="phone-icon" viewBox="0 0 24 32">
            <path d="M19.635 18.487l-2.451-0.28c-0.589-0.067-1.167 0.135-1.582 0.55l-1.775 1.775c-2.731-1.389-4.969-3.618-6.359-6.359l1.785-1.785c0.415-0.415 0.618-0.994 0.55-1.582l-0.28-2.432c-0.116-0.975-0.936-1.708-1.92-1.708h-1.669c-1.090 0-1.997 0.907-1.93 1.997 0.511 8.24 7.102 14.821 15.332 15.332 1.090 0.068 1.997-0.839 1.997-1.93v-1.669c0.010-0.975-0.724-1.795-1.698-1.911v0z"></path>
        </symbol>

        <!--Email icon-->
        <symbol id="email-icon" viewBox="0 0 24 32">
            <path d="M20 8h-16c-1.1 0-1.99 0.9-1.99 2l-0.010 12c0 1.1 0.9 2 2 2h16c1.1 0 2-0.9 2-2v-12c0-1.1-0.9-2-2-2zM19.6 12.25l-7.070 4.42c-0.32 0.2-0.74 0.2-1.060 0l-7.070-4.42c-0.25-0.16-0.4-0.43-0.4-0.72 0-0.67 0.73-1.070 1.3-0.72l6.7 4.19 6.7-4.19c0.57-0.35 1.3 0.050 1.3 0.72 0 0.29-0.15 0.56-0.4 0.72z"></path>
        </symbol>

    </defs>
</svg>
